<svg xmlns="http://www.w3.org/2000/svg" viewBox="0 0 900 520" fill="none">
  <defs><linearGradient id="g" x1="0" x2="1"><stop stop-color="#8c856f" stop-opacity=".08"/><stop offset="1" stop-color="#c9a54d" stop-opacity=".23"/></linearGradient></defs>
  <g stroke="url(#g)" stroke-width="1.3" opacity=".9">
    <path d="M45 410h760M95 360h650M110 105h620M140 70v390M270 58v410M420 50v420M590 62v420M740 80v380" opacity=".45"/>
    <ellipse cx="220" cy="280" rx="120" ry="112"/><ellipse cx="220" cy="280" rx="84" ry="78"/><ellipse cx="220" cy="280" rx="35" ry="32"/>
    <rect x="220" y="170" width="440" height="220" rx="85"/><path d="M325 168v224M430 168v224M535 168v224"/>
    <ellipse cx="655" cy="280" rx="95" ry="88"/><ellipse cx="655" cy="280" rx="44" ry="41"/>
    <path d="M180 390h95v45h-95zM575 390h95v45h-95zM145 435h570"/>
    <path d="M360 130h150v38H360zM390 85h90v45h-90zM370 68h130"/>
    <circle cx="147" cy="185" r="10"/><circle cx="147" cy="375" r="10"/><circle cx="300" cy="185" r="10"/><circle cx="300" cy="375" r="10"/>
    <path d="M720 188h70v184h-70"/><circle cx="787" cy="280" r="60"/><path d="M787 220v120M727 280h120"/>
    <path d="M65 115h140M65 115v30M205 115v30M632 88h176M632 88v28M808 88v28" opacity=".55"/>
  </g>
</svg>
