<svg xmlns="http://www.w3.org/2000/svg" viewBox="0 0 720 380" fill="none">
<g stroke="#8c856f" stroke-opacity=".22" stroke-width="1.2">
<path d="M20 330h660M80 65h540M105 35v310M250 35v310M430 35v310M590 35v310" opacity=".35"/>
<circle cx="210" cy="205" r="105"/><circle cx="210" cy="205" r="70"/><circle cx="210" cy="205" r="26"/>
<path d="M210 100h130c55 0 98 42 98 98v7c0 56-43 99-98 99H210"/>
<path d="M430 190h150v30H430M580 160h72v90h-72"/>
<path d="M145 305h130v44H145zM365 305h100v44H365zM125 349h370"/>
<path d="M200 135c40 12 64 38 72 78M210 275c38-16 60-44 62-83"/>
<path d="M95 205H20v-48h75M315 140v-50h75v52"/>
</g>
</svg>
